{
  "accessors": [
    {
      "bufferView": 2,
      "componentType": 5126,
      "count": 3968,
      "max": [
        0.08117508143186569,
        -0.18451471626758575,
        0.3157358169555664
      ],
      "min": [
        -0.06328772008419037,
        -0.23126482963562012,
        0.27283769845962524
      ],
      "type": "VEC3"
    },
    {
      "bufferView": 2,
      "byteOffset": 47616,
      "componentType": 5126,
      "count": 3968,
      "max": [
        0.9922853708267212,
        0.9922855496406555,
        0.9951441884040833
      ],
      "min": [
        -0.9922855496406555,
        -0.9922853708267212,
        -0.9951406121253967
      ],
      "type": "VEC3"
    },
    {
      "bufferView": 1,
      "componentType": 5126,
      "count": 3968,
      "max": [
        1.0,
        1.0
      ],
      "min": [
        0.0,
        0.0
      ],
      "type": "VEC2"
    },
    {
      "bufferView": 0,
      "componentType": 5125,
      "count": 5760,
      "type": "SCALAR"
    },
    {
      "bufferView": 2,
      "byteOffset": 95232,
      "componentType": 5126,
      "count": 6671,
      "max": [
        0.43788138031959534,
        0.29707348346710205,
        0.4670119285583496
      ],
      "min": [
        -0.4661213457584381,
        -0.2672935426235199,
        -0.5341070890426636
      ],
      "type": "VEC3"
    },
    {
      "bufferView": 2,
      "byteOffset": 175284,
      "componentType": 5126,
      "count": 6671,
      "max": [
        0.9999309182167053,
        0.9998138546943665,
        0.9996718168258667
      ],
      "min": [
        -0.9985568523406982,
        -0.9997656941413879,
        -0.9996996521949768
      ],
      "type": "VEC3"
    },
    {
      "bufferView": 1,
      "byteOffset": 31744,
      "componentType": 5126,
      "count": 6671,
      "max": [
        0.9881511926651001,
        0.9963769316673279
      ],
      "min": [
        0.0,
        0.0
      ],
      "type": "VEC2"
    },
    {
      "bufferView": 0,
      "byteOffset": 23040,
      "componentType": 5125,
      "count": 17544,
      "type": "SCALAR"
    }
  ],
  "asset": {
    "extras": {
      "author": "Dominic Baker (https://sketchfab.com/Domuk)",
      "license": "CC-BY-4.0 (http://creativecommons.org/licenses/by/4.0/)",
      "source": "https://sketchfab.com/3d-models/monster-with-glowing-eyes-ec4df77d00f344b89162c3b1f000a012",
      "title": "Monster- with glowing eyes"
    },
    "generator": "Sketchfab-15.55.0",
    "version": "2.0"
  },
  "bufferViews": [
    {
      "buffer": 0,
      "byteLength": 93216,
      "name": "floatBufferViews",
      "target": 34963
    },
    {
      "buffer": 0,
      "byteLength": 85112,
      "byteOffset": 93216,
      "byteStride": 8,
      "name": "floatBufferViews",
      "target": 34962
    },
    {
      "buffer": 0,
      "byteLength": 255336,
      "byteOffset": 178328,
      "byteStride": 12,
      "name": "floatBufferViews",
      "target": 34962
    }
  ],
  "buffers": [
    {
      "byteLength": 433664,
      "uri": "scene.bin"
    }
  ],
  "extensionsUsed": [
    "KHR_materials_emissive_strength",
    "KHR_materials_specular"
  ],
  "images": [
    {
      "uri": "textures/default_baseColor.jpeg"
    }
  ],
  "materials": [
    {
      "doubleSided": true,
      "emissiveFactor": [
        0.0,
        0.605747,
        0.012807999999999988
      ],
      "extensions": {
        "KHR_materials_emissive_strength": {
          "emissiveStrength": 2.8177084317170076
        }
      },
      "name": "Material.001",
      "pbrMetallicRoughness": {
        "baseColorFactor": [
          0.800023,
          0.0312125,
          0.0481351,
          1.0
        ],
        "metallicFactor": 0.0,
        "roughnessFactor": 0.05509485760340518
      }
    },
    {
      "doubleSided": true,
      "extensions": {
        "KHR_materials_specular": {
          "specularColorFactor": [
            1.0,
            1.0,
            1.0
          ],
          "specularFactor": 0.3762191704918239
        }
      },
      "name": "default",
      "pbrMetallicRoughness": {
        "baseColorTexture": {
          "index": 0
        },
        "metallicFactor": 0.6532675972975185,
        "roughnessFactor": 0.09917074368612931
      }
    }
  ],
  "meshes": [
    {
      "name": "monster_Material.001_0",
      "primitives": [
        {
          "attributes": {
            "NORMAL": 1,
            "POSITION": 0,
            "TEXCOORD_0": 2
          },
          "indices": 3,
          "material": 0,
          "mode": 4
        }
      ]
    },
    {
      "name": "monster_default_0",
      "primitives": [
        {
          "attributes": {
            "NORMAL": 5,
            "POSITION": 4,
            "TEXCOORD_0": 6
          },
          "indices": 7,
          "material": 1,
          "mode": 4
        }
      ]
    }
  ],
  "nodes": [
    {
      "children": [
        1
      ],
      "matrix": [
        1.0,
        0.0,
        0.0,
        0.0,
        0.0,
        2.220446049250313e-16,
        -1.0,
        0.0,
        0.0,
        1.0,
        2.220446049250313e-16,
        0.0,
        0.0,
        0.0,
        0.0,
        1.0
      ],
      "name": "Sketchfab_model"
    },
    {
      "children": [
        2
      ],
      "matrix": [
        0.009999999776482582,
        0.0,
        0.0,
        0.0,
        0.0,
        0.0,
        0.009999999776482582,
        0.0,
        0.0,
        -0.009999999776482582,
        0.0,
        0.0,
        0.0,
        0.0,
        0.0,
        1.0
      ],
      "name": "e79d1db7997b453d99c542f5412c8f9d.fbx"
    },
    {
      "children": [
        3
      ],
      "name": "RootNode"
    },
    {
      "children": [
        4,
        5
      ],
      "matrix": [
        100.0,
        0.0,
        0.0,
        0.0,
        -0.0,
        -1.629206793918314e-05,
        -99.99999999999868,
        0.0,
        0.0,
        99.99999999999868,
        -1.629206793918314e-05,
        0.0,
        -0.6358474493026733,
        52.851707458496094,
        -0.9388460516929626,
        1.0
      ],
      "name": "monster"
    },
    {
      "mesh": 0,
      "name": "monster_Material.001_0"
    },
    {
      "mesh": 1,
      "name": "monster_default_0"
    }
  ],
  "samplers": [
    {
      "magFilter": 9729,
      "minFilter": 9987,
      "wrapS": 10497,
      "wrapT": 10497
    }
  ],
  "scene": 0,
  "scenes": [
    {
      "name": "Sketchfab_Scene",
      "nodes": [
        0
      ]
    }
  ],
  "textures": [
    {
      "sampler": 0,
      "source": 0
    }
  ]
}
